<svg width="1440" height="685" xmlns="http://www.w3.org/2000/svg" xmlns:xlink="http://www.w3.org/1999/xlink"><defs><linearGradient x1="0%" y1="50%" y2="50%" id="b"><stop stop-color="#1C2F46" offset="0%"/><stop offset="100%"/></linearGradient><path id="a" d="M0 0h1462v685H0z"/></defs><g fill="none" fill-rule="evenodd"><mask id="c" fill="#fff"><use xlink:href="#a"/></mask><use fill="url(#b)" fill-rule="nonzero" xlink:href="#a"/><g style="mix-blend-mode:multiply" mask="url(#c)"><path d="M489.178 0l10.818 10.797h15.3V4.474L519.768 0h-30.59zM341.32.046l4.473 4.475v6.324h15.3L371.91.046h-30.589zm-263.07 0v10.815L89.072.078l-.033-.032H78.25zm-15.16 26.027l.008 21.673 10.825-10.83 10.803 10.803v-12.58l8.945-9.034-15.308.014V10.771L63.09 26.073zm415.261-15.276l15.294 15.293h21.637l-15.292-15.293h-21.639zm-117.253.048l-15.292 15.292h21.6l-15.242 15.24h21.64l15.292-15.291h-21.6l15.241-15.24H361.1zm95.59 52.142l15.289 15.296V56.64l-15.29-15.297v21.644zm-67.575-6.3v21.645l15.288-15.297V41.389l-15.288 15.297zm-15.323-15.298l-10.816 10.82 4.48 4.49v6.331h6.332l4.484 4.489 10.821-10.824V41.389h-15.3zm67.61 27.946l15.288 15.296V62.987L441.4 47.69v21.645zm-37-6.3v21.642l15.289-15.296V47.74l-15.288 15.296zm-356.607.01h15.305V47.746L47.794 63.045zm371.972 6.269v15.305h6.321l4.493 4.493 4.49-4.493 6.314-.004V69.311L430.567 58.49l-10.8 10.824zM10.724 78.426H26.07l-.016 15.315 9.032-8.95h12.578L36.862 73.988l10.83-10.828-21.669-.007-15.299 15.274zM0 78.316v10.792l.033.031 10.78-10.823H0zm0 293.73l10.796-10.82V345.92h-6.32L0 341.449v30.597zm10.796-10.816v21.644l15.24-15.247v21.607l15.29-15.296v-21.644l-15.24 15.247v-21.607l-15.29 15.296zm379.761.003l9.776 23.604-18.084-18.086-11.113 4.124-4.024 11.017 18.066 18.071 25.92 10.88-10.765-26.006 19.782 19.982v-28.146l-9.789-23.634-11.836-.444-7.933 8.638zm-349.22 12.693v15.305h15.301l10.821-10.825-4.487-4.484v-6.335h-6.33l-4.487-4.481-10.818 10.82zM56.63 389.25l-15.292 15.293h21.64L78.27 389.25H56.63zm419.728 10.713l-19.898 19.9 28.114-.137 23.604-9.777.492-11.716-8.684-8.06-23.628 9.79zm-413.38 4.58l-15.293 15.293h21.354l-10.558 10.54 10.817 10.819h15.3l.005-6.315 4.493-4.493-4.493-4.492v-6.323H69.585l15.029-15.03H62.976zm288.399 15.281l-4.943 10.77 4.943 10.774h25.574l25.855-10.84-25.855-10.704h-25.574zM47.684 441.211l15.292 15.293H41.337l15.292 15.291h21.64l-15.293-15.291h21.638L69.322 441.21H47.684zm337.482 19.921L367.1 479.201l4.025 11.018 11.113 4.123 18.082-18.085 10.764-26.006-25.918 10.881zm15.154 15.125l-9.776 23.604 7.933 8.638 11.838-.444 9.787-23.633v-28.148l-19.782 19.983zm19.782 8.165v25.554l10.634 4.94.019-.008.017.008 10.632-4.94v-25.554l-10.65-26.307-10.652 26.307zm-394.066 8.995l-15.24-15.245v21.644l15.29 15.298v-21.607l15.24 15.245V487.11l-15.29-15.298v21.605zm15.301-21.599v15.303l10.818 10.82 4.488-4.48h6.329v-6.334l4.487-4.487-10.82-10.822H41.336zM0 519.596l4.476-4.47h6.32V499.82L0 489v30.595zM26.07 782.62H10.724l15.3 15.275 21.667-.007-10.83-10.829 10.803-10.805H35.086l-9.032-8.946.016 15.312zM0 771.939v10.79h10.814L.034 771.905 0 771.94zm404.402 26.076l-15.288-15.298v21.643l15.288 15.297v-21.642l15.288 15.295v-21.644l-15.288-15.297v21.646zm36.999-6.304v21.644l15.288-15.296v-21.644L441.4 791.711zm15.288 6.348v21.644l15.289-15.297v-21.645l-15.29 15.298zm15.31 6.339v15.305h15.3l10.817-10.819-4.48-4.49v-6.332h-6.333l-4.484-4.487L472 804.398zm-424.205-6.396l15.305 15.3-.008 21.673 15.273 15.3v-15.347l15.308.013-8.945-9.034v-12.58L73.924 824.13 63.1 813.301v-15.3H47.794zm739.372 26.178l-10.8-10.805v12.581l-8.949 9.035 15.311-.016v15.349L798 835.02l-.009-21.673-10.825 10.833zm-435-4.511l15.24 15.24h-21.599l15.292 15.292h21.64l-15.24-15.238h21.598l-15.293-15.294h-21.639zm135.12.046l-15.292 15.293h21.601l-15.243 15.242h21.64l15.291-15.291h-21.6l15.244-15.244h-21.64zM78.251 861H89.04l.033-.032-10.82-10.783V861zm267.543-10.799v6.324L341.321 861h30.59l-10.816-10.799h-15.3z" fill="#C3C3C3"/><path d="M520.107 0l10.826 10.782V0h-10.826zM330.456.046v10.782L341.279.046h-10.823zm289.671 10.727V26.08l10.82 10.818 4.49-4.481h6.333v-6.334l4.465-4.463 4.473 4.47v6.333h6.332l4.488 4.482 10.82-10.819V10.779h-15.304l-10.802 10.8-10.808-10.806h-15.307zM530.93 26.09h-15.306l15.297 15.292h-21.646l10.822 10.82-10.822 10.824h21.643l10.824-10.824-10.82-10.82h15.305l.01-15.292-15.307-15.308V26.09zM225.956 10.82l-10.809 10.807-10.802-10.8h-15.307v15.307l10.822 10.819 4.488-4.482h6.333v-6.334l4.472-4.47 4.465 4.464v6.332h6.332l4.49 4.484 10.82-10.82V10.82h-15.304zm89.198 15.317l.007 15.293h15.307l-10.82 10.819 10.824 10.825h21.643l-10.821-10.825 10.821-10.82h-21.647l15.298-15.292H330.46v-15.31l-15.306 15.31zm-89.138 15.267h-6.331v6.335l-4.49 4.485L226.02 63.05h15.306V47.742l-10.822-10.82-4.489 4.482zm-36.834 6.46v15.308h15.307l10.824-10.823-4.488-4.489v-6.332h-6.332l-4.49-4.482-10.82 10.819zM493.771 63.01l.007 15.292 15.296-15.292h-15.303zm-141.456.046L367.61 78.35l.008-15.293h-15.303zm130.66 26.047l-10.823-10.82v21.645l10.823 10.82L493.8 99.923V78.283l-10.825 10.82zm-104.562.048l-10.824-10.82-.002 21.64 10.826 10.824 10.823-10.82V78.332l-10.823 10.82zm78.446 10.785h-15.31l15.31 15.303 15.293-.006V99.928l-15.293-15.297v15.305zm-67.623.039v15.304l15.295.009 15.31-15.305h-15.31V84.677l-15.295 15.298zm30.706-.04h21.606l-10.82-10.823-10.786 10.824zm252.158.157l-.005 15.306h6.332l4.486 4.494 4.489-4.49h6.331l-.004-15.306-10.805-10.825-10.824 10.82zm-504.44.05l-.005 15.246-15.243.005-10.826 10.802 10.823 10.824 15.277.004.003 15.244 10.806 10.825 10.825-10.821.004-15.215 15.251-.003 10.82-10.825-10.825-10.803-15.276-.004-.004-15.283-10.825-10.82-10.805 10.824zm15.302 15.303h6.3v6.307l-4.489 4.488 4.493 4.485v6.237h-6.273l-4.486-4.492-4.49 4.488h-6.3v-6.266l4.493-4.484-4.489-4.488v-6.27h6.267l4.488 4.49 4.486-4.495zm-67.602 37l-.005 15.238-15.245.004-10.825 10.803 10.82 10.824 15.284.004.002 15.276 10.805 10.825 10.826-10.821.004-15.305h-6.331l-4.486-4.492-4.489 4.488h-6.307v-6.302l4.493-4.485-4.49-4.488v-6.266h6.27l4.49 4.49 4.485-4.495h6.332l-.004-15.304-10.825-10.82-10.804 10.826zm404.584 25.769l-10.826-10.822v21.641l10.826 10.824 10.82-10.821v-21.644l-10.82 10.822zm-178.498.045l-10.822-10.82v21.645l10.822 10.82 10.826-10.823-.003-21.641-10.823 10.819zm367.706-10.587l-10.826 10.804 10.82 10.823 15.31.005v-6.331l4.495-4.484-4.488-4.49v-6.33l-15.31.003zm-393.824 21.416H300.02l15.308 15.305 15.296-.008v-15.304l-15.298-15.91.002 15.917zm36.961.081v15.306l15.19.009-10.729 10.725 10.826 10.823h21.644l-10.822-10.823 10.822-10.82h-21.54l15.213-15.21h-15.308l.002-15.918-15.298 15.908zm-341.51-.106v15.305l10.807 10.799-10.81 10.809v15.303h15.31l10.822-10.82-4.486-4.489v-6.33H26.09l-4.465-4.463 4.47-4.474h6.336v-6.33l4.48-4.49-10.82-10.82H10.78zm37.048.144l-10.82 10.82 4.48 4.488v6.331h6.335l4.486 4.49 10.825-10.823v-15.306H47.827zm498.245 15.135l-10.822 10.82 10.825 10.824h21.642l-10.822-10.824 10.822-10.82h-21.645zm-73.903 0l10.822 10.82-10.822 10.824h21.644l10.825-10.824-10.822-10.82h-21.647zM47.701 219.706h-6.338v6.33l-4.48 4.489 10.82 10.82h15.308v-15.304l-10.826-10.825-4.484 4.49zm483.063 6.276v15.287l-10.775-10.773-10.805 10.802v-15.292l-15.294-.008-15.311 15.304h15.31l-.004 15.916 15.279-15.886v21.627l10.825-10.82 10.821 10.82v-21.625l15.253 15.86-.004-15.917h15.31l-15.31-15.304-15.295.009zM300.02 241.325h15.308l-.002 15.917 15.253-15.86v21.623l10.822-10.819 10.824 10.82V241.38l15.276 15.886-.001-15.916h15.307L367.5 226.045l-15.296.008v15.29l-10.803-10.8-10.777 10.772V226.03l-15.296-.01-15.308 15.306zm141.595 52.165v6.367l15.326 15.326 21.598-.049-21.45-21.669-15.474.025zm-58.764 21.69l21.597.05 15.326-15.324v-6.368l-15.475-.025-21.448 21.667zm-167.664-10.676l-10.821-10.819v21.644l10.821 10.821 10.825-10.825v-21.64l-10.825 10.82zm404.896 10.79l-15.917-.004 15.908 15.296h15.306l.009-15.291-15.306-15.31v15.31zm-394.084.047l.009 15.293h15.289l-10.774 10.774 10.804 10.805h-15.295l-.007 15.291 15.305 15.31v-15.31l15.918.005-15.89-15.277h21.631l-10.821-10.824 10.821-10.819h-21.627l15.861-15.252-15.916.004v-15.309l-15.308 15.309zm-36.935 0l-15.918-.004 15.91 15.297h-21.643l10.82 10.82-10.82 10.824h21.642l10.826-10.825-10.821-10.82h15.301l.009-15.292-15.306-15.309v15.309zm304.946 15.102l21.55.098 4.585-4.586-10.96-10.816-30.486-.005 15.31 15.309zm-483.226.026h15.31v15.305l15.294-15.296v-15.305l-15.293-.007-15.31 15.303zm341.421-15.284L341.245 326l4.582 4.588 21.553-.1 15.31-15.309-30.485.005zm178.753.019l-10.826 10.823 4.488 4.485v6.336h6.334l4.404 4.395-4.548 4.545.097 21.55 15.31 15.309-.002-30.483-10.734-10.874 10.783-10.782v-15.304h-15.306zm-215.833.047v15.303l10.783 10.783-10.734 10.876-.004 30.482 15.31-15.31.097-21.55-4.546-4.544 4.405-4.397h6.331v-6.334l4.49-4.485-10.826-10.824h-15.306zm483.229 15.185v21.638l10.824-10.82L820 352.073V330.43l-10.822-10.82-10.824 10.826zm-756.966.042v21.644l10.822-10.82 10.826 10.82v-21.64L52.21 319.657l-10.822 10.82zM0 330.465v10.825l10.784-10.825H0zm656.937 21.787l-.007 15.291 15.306 15.31v-15.31l15.916.005-15.909-15.296h-15.306zm-467.792.046l-15.91 15.296 15.919-.004v15.309l15.212-15.215v21.538l10.821-10.819 10.825 10.82v-21.64l-10.825-10.825-10.727 10.726-.008-15.186h-15.307zM63.018 367.623l15.294-.009-15.294-15.291v15.3zm15.28-.029l10.818 10.824-10.819 10.82h21.645l10.822-10.82-10.826-10.824h-21.64zm467.872 36.808l15.326 15.324h6.32v6.29l-4.494 4.485 4.49 4.492v6.33l15.31-.004 10.825-10.805-10.82-10.824-15.261-.005.023-15.43-21.671-21.449-.048 21.596zm-252.671-.102l.025 15.339-15.262.004-10.822 10.822 10.827 10.804 15.31.004v-6.331l4.49-4.49-4.494-4.482v-6.195h6.32l15.326-15.326-.049-21.595L293.5 404.3zM99.942 389.238l-15.299 15.293h15.308v15.076l-10.825 10.78 10.825 10.82V419.84l15.306-15.309-.009-15.293H99.942zm.009 67.279H84.643l15.3 15.291H78.296l10.819 10.82-10.819 10.826h21.64l10.827-10.825-10.822-10.82h15.306l.009-15.292-15.306-15.31v15.31zm193.573-15.244l-.025 15.474 21.671 21.447.05-21.595-15.327-15.326h-6.37zm-78.337 41.373l-10.821-10.822v21.54l-15.212-15.216v15.309l-15.919-.003 15.91 15.295h15.307l.008-15.188 10.727 10.728 10.825-10.824v-21.641l-10.825 10.822zm546.26-10.787l-10.822 10.819 10.825 10.825h21.642l-10.82-10.825 10.82-10.82h-21.645zm-535.422 21.684l.007 15.292h15.295l-10.804 10.804 10.775 10.775h-15.29l-.009 15.293 15.308 15.309v-15.31l15.916.004-15.863-15.251h21.63l-10.822-10.82 10.821-10.823h-21.63l15.889-15.277-15.918.004v-15.309l-15.305 15.31zm304.882.168l-.097 21.549 4.587 4.583 10.818-10.959.003-30.482-15.31 15.31zM63.018 508.725l15.294-15.294-15.294-.006v15.3zm104.395.045l10.82 10.825-10.82 10.819h21.647l10.821-10.82-10.826-10.824h-21.642zm504.921.049l-10.825 10.823 10.82 10.822h21.647l-10.822-10.822 10.822-10.823h-21.642zm-73.936.045l10.822 10.823-10.822 10.82h21.648l10.82-10.82-10.824-10.823h-21.644zM52.21 519.745l-10.822-10.82v21.645l10.822 10.82 10.826-10.824v-21.642L52.21 519.745zm-26.115 10.832h-15.31l15.31 15.305 15.293-.007V530.57l-15.293-15.297v15.304zm289.03-.087v15.306h15.306l10.827-10.825-4.49-4.483v-6.337h-6.332l-4.489-4.478-10.822 10.817zM0 530.582h10.784L0 519.758v10.824zm189.055-.168l-15.91 15.296 15.919-.003v15.309l15.306-15.31-.009-15.292h-15.306zm152.19 4.633l10.96 10.814 30.485.003-15.31-15.308-21.553-.097-4.582 4.588zm152.765-4.44l-15.31 15.308 30.484-.004 10.96-10.817-4.583-4.588-21.551.1zm-289.644 15.111v21.644l10.821-10.82 10.825 10.82v-21.64L215.187 534.9l-10.821 10.82zm178.485.146l21.448 21.67 15.475-.024v-6.369l-15.326-15.326-21.597.05zm58.764 15.327v6.313h-6.333l-4.489-4.487-4.484 4.493h-6.333l.004 15.309 10.825 10.819 10.805-10.825.005-15.309v.055l15.474.025 21.45-21.669-21.598-.05-15.326 15.326zM341.4 608.86l-10.822-10.82v21.628l-15.253-15.862.002 15.915H300.02l15.308 15.305 15.296-.01V619.73l10.777 10.776 10.803-10.804v15.29L367.5 635l15.307-15.302H367.5l.001-15.918-15.276 15.886V598.04l-10.824 10.821zm178.588.05l-10.825-10.82v21.64l10.825 10.822 10.821-10.818V598.09l-10.821 10.82zM47.704 619.7l-10.82 10.82 4.48 4.49v6.33H47.7l4.484 4.487 10.826-10.822v-15.304H47.704zm-36.928.066v15.306l10.81 10.807-10.806 10.8v15.304h15.31l10.82-10.82-4.48-4.489v-6.332h-6.335l-4.47-4.473 4.465-4.463h6.332v-6.331l4.486-4.488-10.822-10.821h-15.31zm356.8 15.247l-10.826 10.825 10.822 10.82h21.648l-10.822-10.82 10.822-10.825h-21.644zm-73.903 0l10.818 10.825-10.818 10.82h21.645l10.821-10.82-10.826-10.825h-21.64zm178.496.049l10.822 10.825-10.822 10.82h21.54l-15.217 15.21h15.31l-.002 15.916 15.299-15.908v-15.306l-15.188-.007 10.727-10.725-10.825-10.825h-21.644zm-356.778 21.39l-.002 15.275-15.283.006-10.82 10.822 10.824 10.804 15.245.005.005 15.238 10.804 10.825 10.825-10.821.004-15.277 15.246-.001 10.824-10.805-10.82-10.824-15.217-.004-.004-15.247-10.826-10.82-10.805 10.823zm15.304 15.3h6.237v6.274l-4.493 4.485 4.489 4.489v6.303h-6.267l-4.485-4.494-4.49 4.488h-6.27v-6.264l4.49-4.488-4.493-4.486v-6.302h6.307l4.489 4.488 4.486-4.492zM47.822 650.2h-6.334v6.33l-4.482 4.49 10.82 10.818h15.307v-15.304L52.308 645.71l-4.486 4.49zm252.198 21.757h15.308l-.002 15.918 15.298-15.908V656.66l-15.296-.009-15.308 15.305zm230.744-15.247v15.3l-10.82-10.819-10.826 10.825v21.638l10.826-10.819 10.82 10.82v-21.639l15.299 15.908-.004-15.918h15.31l-15.31-15.304-15.295.008zm-200.14 15.251v21.644l10.822-10.819 10.823 10.82.003-21.64-10.826-10.824-10.822 10.82zM167.689 708.78l-.003 15.308h6.33l4.49 4.489 4.487-4.494h6.273v6.238l-4.493 4.484 4.489 4.488v6.306h-6.3l-4.486-4.492-4.488 4.488h-6.333l.005 15.309 10.805 10.825 10.825-10.82.004-15.284 15.276-.004 10.826-10.805-10.82-10.823-15.252-.004-.004-15.215-10.825-10.82-10.806 10.826zm489.125 15.262l-10.822 10.825 10.825 10.805 15.307.003v-6.333l4.489-4.488-4.493-4.485v-6.33l-15.306.003zm36.858 6.361l-4.493 4.484 4.49 4.489v6.332l15.305-.004 10.826-10.805-10.821-10.824-15.307-.003v6.331zm-304.436 15.364v15.306l-10.823-10.819-10.826 10.822.002 21.641-15.274 15.271h15.303l-.008-15.291 10.803-10.8 10.823 10.82v-21.644l15.295 15.296v-15.303h15.31l-15.31-15.306-15.295.007zm52.312 15.344h15.31v15.304l15.294-15.297v-15.304l-15.293-.01-15.31 15.307zm-21.606 0l10.786 10.822 10.82-10.822h-21.606zm73.829 36.927h15.303l-15.296-15.292-.007 15.292zm-304.589-.164v15.31l10.82 10.818 4.491-4.484h6.332v-6.33l4.488-4.49-10.824-10.824h-15.307zm467.717.05l-10.824 10.823 4.49 4.487v6.334h6.331l4.489 4.48 10.822-10.82v-15.303h-15.308zm-326.427.05l-10.825 10.822 10.82 10.82h21.648l-10.821-10.82 10.821-10.822h-21.643zm-104.451.023l-10.826 10.825 4.49 4.488v6.331h6.331l4.49 4.486 10.821-10.821v-15.309h-15.306zm89.14 21.62l-.007 15.293 15.306 15.308V834.91h15.306l-15.298-15.293H315.16zm215.76.049l-15.298 15.293h15.306v15.309l15.306-15.31-.009-15.292H530.92zm-341.883 15.247v15.308h15.307l10.802-10.8 10.809 10.805h15.304v-15.303l-10.82-10.821-4.49 4.481h-6.332v6.334l-4.465 4.463-4.472-4.47v-6.331h-6.333l-4.488-4.486-10.822 10.82zm431.09.053v15.309h15.306l10.824-10.822-4.488-4.49v-6.33h-6.332l-4.49-4.486-10.82 10.819zM330.455 861h10.823l-10.823-10.782V861z" fill="#B8B8B8"/><path d="M667.414 0l4.438 4.439v6.34h6.334l4.481 4.483 4.476-4.484h6.335v-6.34L697.92 0h-30.506zM445.677 0l10.813 10.817h21.623L467.305 0h-21.628zm-52.324.046l-10.806 10.817h21.57l-15.214 15.222H404.2v15.302l15.28-15.294V10.788l-15.226-.007L414.98.046h-21.628zm-156.73 0l4.434 4.435v6.339h6.335l4.478 4.484 4.482-4.484h6.335V4.48l4.428-4.434h-30.492zm-43.378 0l10.775 10.78 21.763.004L236.377.046h-43.132zm-30.505 0l4.441 4.44v6.34h6.334l4.476 4.485 4.482-4.485h6.335v-6.34l4.437-4.44H162.74zm-73.684 0l-.003.005 4.49 4.493v6.32h15.293L119.65.06l-.011-.015H89.056zM0 .046l.016 15.301 4.482-4.485h6.333V4.524L15.305.046H0zm108.917 10.75L93.63 26.085h21.628l15.286-15.29h-21.628zM419.568 26.05l.003 21.637 10.813-10.817 10.815 10.817V26.046l-10.815-10.82-10.816 10.824zm-178.514.078v21.78l10.811 10.647 10.822-10.647-.005-21.78-10.812-10.824-10.816 10.824zm-73.654.133V48.04l10.812 10.649 10.82-10.65-.004-21.777-10.813-10.821L167.4 26.26zm-52.177-.172l-10.813 10.82 10.797 10.803H99.932l-.007 15.276-15.266-15.28.01 21.645L73.88 58.56l-4.485 4.482H63.07v6.334l-4.486 4.486L69.4 84.684h15.293V69.388L99.954 84.66V63.033l15.263 15.277V63.004h15.295L115.246 47.73l21.603-.001-10.812-10.82 10.812-10.82h-21.626zm436.876 15.29h-6.335v6.34l-4.482 4.48 4.482 4.484v6.34h6.335l4.478 4.48 4.48-4.48h6.335v-6.34l4.478-4.483-4.478-4.481v-6.34h-6.335l-4.48-4.483-4.478 4.484zm-252.495.048h-6.335v6.34l-4.478 4.479 4.478 4.485v6.34h6.335l4.48 4.48 4.478-4.48h6.333v-6.34l4.482-4.485-4.482-4.48v-6.339h-6.333l-4.478-4.485-4.48 4.485zm461.103 21.544v21.641l15.284-15.295.009-21.656-15.293 15.31zm-513.25.075h-6.333v6.339l-4.401 4.404-10.562-10.74h-21.764l-10.815 10.824 10.815 10.819 21.764.004 10.562-10.746 4.4 4.4v6.339h6.334l4.478 4.483 4.482-4.483h6.335v-6.34l4.476-4.48-4.476-4.484v-6.34h-6.335l-4.482-4.48-4.478 4.48zm430.514.075h-6.333v6.34l-4.481 4.483 4.48 4.48v6.34h6.334l4.48 4.485 4.481-4.485h6.334v-6.34l4.476-4.48-4.476-4.484v-6.34h-6.334l-4.482-4.48-4.479 4.48zm-504.24.048h-6.336v6.337l-4.477 4.487 4.477 4.48v6.305h-14.963l-15.444 15.37v15.219h15.31l15.256-15.266V84.81h6.176l4.482 4.484 4.476-4.483h6.335v-6.34l4.482-4.479-4.482-4.487V63.17h-6.335l-4.476-4.481-4.482 4.48zm372.038 15.156v21.777l10.81 10.648 10.764-10.59v15.07h15.31l15.256-15.267V84.641h-15.12L567.4 99.95l-.004-21.626L556.585 67.5 545.77 78.325zm-252.505.046l-.005 21.626-15.386-15.308h-15.121v15.322l15.255 15.266h15.31v-15.07l10.763 10.59 10.811-10.648V78.37l-10.816-10.823-10.81 10.823zM62.9 100.037l-15.263.007v15.285L36.84 104.525l-10.81 10.82v21.643l10.81-10.82 10.811 10.82.005-21.62 15.261 15.276v-15.303h15.298l-15.269-15.275h21.61L69.273 84.771l-21.64-.01L62.9 100.037zM0 89.164v30.604l.016.012 10.796-10.823V93.653H4.495l-4.49-4.492-.004.003zm10.744 19.87v21.644l15.28-15.297V93.74l-15.28 15.295zm467.342 6.193h-6.334v6.337l-4.477 4.485 4.477 4.48v6.194h-15.08l-15.445 15.37v15.22h15.31l15.256-15.266v-15.179h6.293l4.482 4.485 4.48-4.485h6.333v-6.34l4.48-4.479-4.48-4.485v-6.337h-6.333l-4.48-4.481-4.482 4.48zm-104.473.046h-6.335v6.34l-4.482 4.484 4.482 4.481v6.338h6.335l4.477 4.483 4.481-4.483h6.293v15.18l15.256 15.265h15.309V152.14l-15.445-15.369h-15.078v-6.193l4.476-4.48-4.476-4.486v-6.34h-6.335l-4.48-4.478-4.478 4.479zm-74.015.004h-6.335v6.34l-4.304 4.311-10.341-10.518h-21.764l-10.817 10.823 10.817 10.82 21.204.005-15.307 15.23v15.22h15.309l15.257-15.267v-15.32h6.281l4.48 4.484 4.477-4.485h6.335v-6.34l4.482-4.478-4.482-4.486v-6.339h-6.335l-4.476-4.48-4.48 4.48zm-10.51 11.125l4.175 4.179v6.34h-14.51l10.335-10.519zm-167.396-11.035h-6.334v6.34l-4.477 4.481 4.477 4.481v6.34h6.334l4.483 4.483 4.477-4.484h6.335v-6.339l4.48-4.48-4.48-4.483v-6.34h-6.335l-4.477-4.48-4.483 4.48zm104.337.035h-6.335v6.337l-4.48 4.483 4.48 4.48v6.338h6.335l4.478 4.485 4.482-4.485h6.334v-6.338l4.478-4.48-4.478-4.483v-6.337h-6.334l-4.482-4.481-4.478 4.48zm282.65-.175l-10.817 10.822 10.817 10.82 21.764.003 10.639-10.827-10.64-10.818H508.68zm-178.463.046l-10.639 10.818 10.64 10.83 21.763-.005 10.816-10.819-10.816-10.824h-21.764zm237.126 21.6v15.322l15.257 15.267h15.31V152.24l-15.446-15.368h-15.12zm-362.918.046l-15.444 15.368v15.22h15.31l15.255-15.266V136.92h-15.121zm-67.437.09v15.32l15.256 15.266h15.31l.016-15.303-15.299-15.313-15.283.03zm-36.953.118l-15.358 15.455v14.973h-6.302l-4.478-4.482-4.482 4.482h-6.334v6.338l-4.478 4.485 4.478 4.48v6.338h6.334l4.482 4.486 4.478-4.486h6.335v-6.339l4.48-4.48-4.48-4.484v-6.179h15.28l15.257-15.266v-15.321h-15.212zM.001 193.424l4.436-4.44h6.335v-6.338l4.486-4.487-4.486-4.48v-6.338H4.437l-4.436-4.443v30.526zM425.9 167.396h-6.335v6.34l-4.482 4.484 4.482 4.48v6.339h6.335l4.472 4.48-10.807 10.82-.004 21.778 10.82 10.647 10.812-10.647v-21.779l-10.81-10.818 4.475-4.481h6.335v-6.34l4.478-4.479-4.478-4.485v-6.34h-6.335l-4.482-4.48-4.476 4.48zm-178.41.146h-6.335v6.34l-4.478 4.483 4.478 4.48v6.338h6.335l4.48 4.487 4.478-4.487h6.335v-6.337l4.482-4.481-4.482-4.484v-6.34h-6.335l-4.478-4.48-4.48 4.48zm430.323.007h-6.335v6.34l-4.317 4.743 4.317 4.218v6.34h6.335l4.48 4.483 4.478-4.484h6.335v-6.34l4.48-4.48-4.48-4.48v-6.34h-6.335l-4.456-3.98-4.502 3.98zm-503.924.046h-6.334v6.34l-4.482 4.482 4.482 4.48v6.339h6.334l4.404 4.41-10.904 10.814v21.779l10.811 10.646 10.82-10.646-.004-21.78-10.48-10.91 4.31-4.313h6.336v-6.34l4.243-4.144 10.852 10.437 21.764.005 10.636-10.83-10.636-10.818h-21.764l-10.895 11.004-4.2-4.615v-6.34h-6.335l-4.5-3.98-4.458 3.98zM26.2 167.558L15.384 178.38 26.2 189.2l21.764.004 10.639-10.827-10.64-10.82H26.2zm125.94 21.6l-15.36 15.453v15.132h15.313l15.257-15.266v-15.32h-15.21zm608.497.1l-15.257 15.265v15.32h15.213l15.358-15.456v-15.13h-15.314zm-675.927.045v15.132l15.358 15.456h15.211V204.57l-15.257-15.267H84.71zM.001 236.586l10.775-10.603-.004-21.778-10.77-10.78v43.16zm597.88-32.05l-.004 21.778 10.82 10.65 10.811-10.65v-21.778l-10.815-10.823-10.813 10.823zm-534.919.047v21.778l10.732 10.567-4.401 4.404h-6.334v6.34l-4.478 4.48 4.478 4.484v6.34h6.334l4.482 4.479 4.476-4.48h6.335v-6.339l4.482-4.485-4.482-4.48v-6.339H78.25l-4.395-4.402 10.738-10.569-.004-21.778L73.78 193.76l-10.817 10.823zm178.189 0v21.778l10.746 10.583-4.394 4.397h-6.335v6.34l-4.43 4.432-10.577-10.752h-21.764l-10.81 10.823 10.81 10.819 21.764.006 10.593-10.777 4.414 4.413v6.34h6.335l4.478 4.483 4.48-4.484h6.335v-6.34l4.478-4.48-4.478-4.484v-6.339h-6.334l-4.415-4.414 10.736-10.566-.004-21.778-10.811-10.82-10.817 10.82zM121.614 219.89h-6.335v6.339l-4.476 4.48 4.476 4.486v6.338h6.335l4.476 4.48 4.478-4.48h6.335v-6.338l4.482-4.487-4.482-4.48v-6.338h-6.335l-4.478-4.484-4.476 4.484zm304.35 21.378h-6.335v6.34l-4.482 4.484 4.482 4.48v6.337h6.335l4.476 4.487 4.484-4.487h6.313v15.044l15.445 15.368h15.121v-15.325l-15.257-15.266h-15.289v-6.159l4.478-4.479-4.478-4.485v-6.34h-6.333l-4.484-4.48-4.476 4.48zM.001 267.345l4.433-4.435h6.334v-6.339l4.48-4.485-4.48-4.48v-6.34H4.434L.001 236.83v30.514zm173.718-25.98h-6.335v6.34l-4.48 4.484 4.48 4.48v6.34h6.335l4.48 4.483 4.478-4.483h6.333v-6.34l4.482-4.48-4.482-4.484v-6.34h-6.333l-4.478-4.48-4.48 4.48zm-147.654-.102l-10.817 10.823 10.817 10.82 21.769.004 10.639-10.828-10.64-10.819H26.066zm697.68 15.765l-.004 21.778 10.82 10.647 10.812-10.647v-21.778l-10.817-10.823-10.81 10.823zm-608.457.048v21.779l10.51 10.348-4.307 4.306h-6.335v-15.266l-15.255-15.268H84.586v15.132l15.302 15.398-21.613.004-10.815 10.82 10.815 10.823h21.764l10.64-10.82-10.583-10.77h15.06v6.286l-4.477 4.484 4.477 4.48v6.34h6.335l4.48 4.485 4.478-4.485h6.335v-6.34l4.482-4.48-4.482-4.484v-6.339h-6.335l-4.175-4.178 10.51-10.343v14.575h15.31l15.256-15.268v-15.32h-15.21l-15.22 15.32-.004-21.22-10.813-10.824-10.815 10.825zm288.825 5.703l-15.255 15.266v15.325h15.121L419.422 278v-15.221h-15.309zm-393.325.147v15.132l15.355 15.455h15.213v-15.32l-15.257-15.267H10.788zm571.935.03l-15.445 15.37v15.222h15.31l15.255-15.266v-15.325h-15.12zm-319.906.047v15.325l15.257 15.266h15.157v6.337l-4.476 4.483 4.476 4.481v6.34h6.335l4.482 4.483 4.476-4.484h6.335v-6.339l4.48-4.48-4.48-4.484v-6.34h-6.335l-4.476-4.48-4.482 4.48h-6.183v-15.216l-15.445-15.372h-15.121zM47.69 293.513h-6.335v6.34l-4.482 4.483 4.482 4.481v6.34h6.335l4.476 4.483 4.482-4.484h6.335v-6.339l4.476-4.48-4.476-4.484v-6.34h-6.335l-4.482-4.48-4.476 4.48zm460.902-.039l-10.64 10.819 10.64 10.829 21.762-.005 10.817-10.82-10.817-10.823h-21.762zm-178.289.048l-10.815 10.821 10.815 10.82 21.763.005 10.64-10.827-10.64-10.819h-21.763zm215.452 37.006l-.003 21.777 10.82 10.648 10.812-10.648v-21.777l-10.817-10.824-10.812 10.824zm-430.604-.04v21.778l10.817 10.825 10.811-10.825.004-21.777-10.82-10.648-10.812 10.648zm6.335 37.086h-6.335v6.34l-4.476 4.48 4.476 4.484v6.34h6.335l4.482 4.48 4.477-4.48h6.187v15.09l15.358 15.456h15.212v-15.32l-15.257-15.269H136.78v-6.297l4.482-4.484-4.482-4.48v-6.34h-6.334l-4.477-4.483-4.482 4.483zM0 393.67v21.643l10.726-10.733.008 15.234h15.051l-10.564 10.573 10.788 10.801H10.735l-.008 15.236L.001 445.688v21.643l10.812 10.816v-21.581l15.212 15.221V456.48h15.292l-15.262-15.27h21.607l-10.813-10.823 10.813-10.819-21.38-.004 15.035-15.042H26.025v-15.308l-15.212 15.221v-21.58L0 393.668zm277.81-4.5l-15.256 15.265v15.19H256.4l-4.476-4.484-4.482 4.484h-6.335v6.339l-4.476 4.48 4.476 4.484v6.34h6.335l4.482 4.48 4.476-4.48h6.156v15.299l15.256 15.267h15.315v-15.131l-15.36-15.457h-15.032v-6.318l4.48-4.485-4.48-4.48v-6.207h15.032l15.36-15.454v-15.133H277.81zm-104.19 30.39h-6.336v6.337l-4.477 4.48 4.477 4.485v6.339h6.335l4.48 4.48 4.479-4.48h6.333v-6.34l4.48-4.48 10.81 10.82h21.763l10.64-10.82-10.64-10.826-21.763.004-10.81 10.815-4.48-4.477v-6.338h-6.333l-4.478-4.485-4.48 4.485zm504.461.047h-6.333v6.338l-4.478 4.476-10.812-10.814-21.764-.004-10.64 10.827 10.64 10.82h21.764l10.812-10.818 4.478 4.479v6.34h6.333l4.478 4.48 4.48-4.48h6.336v-6.34l4.477-4.484-4.477-4.482v-6.338h-6.335l-4.48-4.485-4.479 4.485zm-526.091 21.63l-15.358 15.457v15.09h-6.187l-4.477-4.48-4.482 4.48h-6.335v6.339l-4.476 4.485 4.476 4.48v6.34h6.335l4.482 4.484-10.817 10.824v21.778l10.812 10.646 10.82-10.646-.004-21.778-10.811-10.824 4.477-4.484h6.334v-6.34l4.482-4.48-4.482-4.485v-6.299h15.166l15.257-15.266v-15.32h-15.212zm430.903.06l-15.359 15.455v15.132h15.315l15.256-15.268v-15.32h-15.212zm140.987 67.488l-.006 21.778 10.821 10.646 10.812-10.646v-21.778l-10.816-10.824-10.811 10.824zm-430.605-.137v21.779l10.815 10.824 10.813-10.824.004-21.78L304.088 498l-10.812 10.647zm252.477.05l.003 21.778 10.812 10.824 10.817-10.824v-21.777l-10.813-10.648-10.82 10.648zm6.382 37.12h-6.333v6.339l-4.482 4.48 4.482 4.484v6.338h6.333l4.478 4.48 4.48-4.48h6.335v-6.338l4.478-4.484-4.478-4.48v-6.34h-6.335l-4.48-4.483-4.478 4.483zm-504.444.028h-6.335v6.338l-4.482 4.48 4.482 4.484v6.34H26.143l-15.355 15.457v15.13h15.31l15.258-15.266v-15.321h6.335l4.476 4.48 4.482-4.48h6.335v-6.34l4.476-4.483-4.476-4.481v-6.338h-6.335l-4.482-4.485-4.476 4.485zm73.8.003h-6.335v6.34l-4.477 4.48 4.477 4.485v6.284h-15.059l10.582-10.769-10.64-10.82H78.275L67.46 556.672l10.815 10.819 21.611.004-15.3 15.4v15.13H99.9l15.255-15.266V567.49h6.335l4.307 4.306-10.51 10.35v21.779l10.815 10.823 10.813-10.823.004-21.78-10.648-10.475 4.177-4.18h6.335v-6.338l4.482-4.485-4.482-4.48v-6.34h-6.335l-4.477-4.484-4.48 4.484zm208.813-.013l-10.815 10.82 10.815 10.824h21.763l10.64-10.82-10.64-10.827-21.763.003zm167.648 10.874l10.64 10.82h21.763l10.817-10.825-10.817-10.818-21.762-.005-10.64 10.828zm-219.878 10.695l-15.257 15.27v15.322h15.12l15.446-15.37v-15.222h-15.31zm430.492.083l-15.257 15.267v15.32h15.212l15.354-15.454v-15.133h-15.309zm-319.708.144v15.324l15.255 15.266h15.31V583l-15.444-15.368h-15.121zm67.824.05l-15.445 15.368v15.04h-6.313l-4.484-4.483-4.476 4.484h-6.335v6.339l-4.482 4.48 4.482 4.484v6.34h6.335l4.476 4.48 4.484-4.48h6.333v-6.34l4.478-4.483-4.478-4.481v-6.159h15.29l15.256-15.266V567.68h-15.121zm-282.963 30.312h-6.335v6.339l-4.48 4.48 4.48 4.484v6.34h6.335l4.48 4.48-10.811 10.645v21.78l10.907 10.812-4.407 4.413h-6.334v6.34l-4.482 4.479 4.482 4.48v6.34h-15.31l-15.256 15.267v15.318l15.283.03 15.3-15.312-.017-15.303h6.334l4.457 3.98 4.5-3.98h6.336v-6.34l4.201-4.614 10.894 11.003h21.764l10.636-10.82-10.636-10.828-21.764.005-10.853 10.438-4.242-4.144v-6.34h-6.335l-4.312-4.313 10.48-10.912.005-21.779-10.82-10.645 4.478-4.48h6.333v-6.34l4.482-4.483-4.482-4.481v-6.34h-6.333l-4.478-4.484-4.48 4.485zm73.784.024h-6.335v6.34l-4.414 4.412-10.593-10.776-21.764.003-10.81 10.82 10.81 10.824h21.764l10.577-10.752 4.43 4.433v6.338h6.335l4.396 4.398-10.748 10.582v21.777l10.817 10.824 10.811-10.824.004-21.777-10.737-10.564 4.416-4.416h6.334v-6.338l4.478-4.484-4.478-4.48v-6.34h-6.334l-4.481-4.485-4.478 4.485zm-178.21.008h-6.334v6.339l-4.478 4.485 4.478 4.48v6.339h6.334l4.4 4.404-10.731 10.567v21.777l10.817 10.824 10.811-10.824.004-21.777-10.738-10.567 4.395-4.404h6.335v-6.34l4.482-4.48-4.482-4.484v-6.34H78.25l-4.476-4.479-4.482 4.48zM0 624.169l4.433-4.436h6.334v-6.34l4.48-4.479-4.48-4.485v-6.34H4.434l-4.433-4.434v30.514zm26.064-26.074l-10.817 10.819 10.817 10.823h21.769l10.639-10.819-10.64-10.828-21.768.005zm95.549 21.373h-6.335v6.34l-4.476 4.481 4.476 4.481v6.338h-15.21L84.71 656.564v15.133h15.312l15.257-15.268v-15.321h6.335l4.476 4.485 4.478-4.485h6.335v-6.338l4.482-4.48-4.482-4.483v-6.34h-6.335l-4.478-4.481-4.476 4.482zm476.263 15.221l.003 21.778 10.813 10.818 10.815-10.818v-21.778l-10.81-10.65-10.82 10.65zm73.763.122l.005 21.779 10.477 10.908-4.31 4.313h-6.335v6.34l-4.317 4.217 4.317 4.746v6.34h6.335l4.502 3.979 4.456-3.98h6.335v-6.339l4.48-4.483-4.48-4.48v-6.34h-6.335l-4.402-4.41 10.905-10.811v-21.78l-10.813-10.644-10.82 10.645zm-252.08.073l.004 21.778 10.807 10.82-4.472 4.48h-6.335v6.338l-4.482 4.481 4.482 4.484v6.34h6.335l4.476 4.48 4.482-4.48h6.335v-6.34l4.478-4.484-4.478-4.48v-6.338h-6.335l-4.476-4.481 10.811-10.82v-21.778l-10.812-10.646-10.82 10.646zM0 667.576v30.526l4.436-4.444h6.335v-6.338l4.486-4.48-4.486-4.485v-6.339H4.437l-4.436-4.44 10.771-10.783.004-21.777-10.775-10.6v43.16zm69.414 4.226h-6.334v6.34l-4.478 4.48 4.478 4.485v6.338h6.334l4.482 4.48 4.478-4.48h6.302v14.973l15.358 15.454h15.212v-15.32L99.99 693.286H84.71v-6.179l4.48-4.485-4.48-4.48v-6.34h-6.335l-4.478-4.484-4.482 4.484zm178.074.013h-6.335v6.34l-4.478 4.479 4.478 4.485v6.34h6.335l4.48 4.48 4.478-4.48h6.335v-6.34l4.482-4.485-4.482-4.48v-6.339h-6.335l-4.478-4.484-4.48 4.484zm-221.29-.016l-10.815 10.819L26.2 693.44h21.764l10.639-10.819-10.64-10.829-21.763.006zm734.472 21.536L745.414 708.6v15.32h15.21l15.362-15.453v-15.132H760.67zm-497.92.155v15.223l15.305 15.23-21.201.004-10.817 10.818 10.817 10.825h21.764l10.34-10.518 4.305 4.313v6.34h-15.257l-15.255 15.267v15.32h15.12l15.387-15.309.005 21.626 10.811 10.824 10.816-10.824V760.85l-10.811-10.647 4.476-4.48h6.335v-6.339l4.482-4.485-4.482-4.48v-6.339h-6.335l-4.476-4.483-4.48 4.483h-6.336v6.338l-4.175 4.179-10.334-10.517h14.563v-15.324L278.06 693.49h-15.31zm36.848 52.234l4.48 4.48-10.761 10.591v-15.07h6.281zm-110.618-52.23v15.219l15.444 15.368h15.121v-15.324l-15.256-15.263h-15.309zm393.62.047l-15.258 15.267v15.318h14.566l-10.506 10.691 10.64 10.82h21.763l10.816-10.822-10.816-10.82-21.206-.005 15.31-15.228V693.54H582.6zm-178.48.096l-15.256 15.268v15.18h-6.293l-4.48-4.484-4.478 4.485h-6.335v6.339l-4.482 4.48 4.482 4.484v6.338h6.335l4.477 4.48 4.481-4.48h6.335v-6.338l4.476-4.483-4.476-4.481v-6.195h15.078l15.445-15.37v-15.223h-15.31zm37.107.05v15.222l15.445 15.37h15.08v6.19l-4.477 4.48 4.477 4.485v6.34h6.334l4.482 4.48 4.48-4.48h6.333v-6.34l4.48-4.485-4.48-4.48v-6.339h-6.333l-4.48-4.483-4.482 4.483h-6.293v-15.176l-15.255-15.267h-15.31zM226.03 723.958h-6.335v6.34l-4.48 4.479 4.48 4.485v6.34h-15.31l-15.255 15.265v15.321h15.121l15.444-15.364v-15.223h6.335l4.478 4.481 4.482-4.48h6.334v-6.34l4.478-4.485-4.478-4.48v-6.339h-6.334l-4.482-4.485-4.478 4.485zm-104.337.032h-6.334v6.34l-4.477 4.482 4.477 4.483v6.34h6.334l4.483 4.48 4.477-4.48h6.335v-6.34l4.48-4.483-4.48-4.483v-6.339h-6.335l-4.477-4.483-4.483 4.483zM36.84 734.83l-10.81-10.818v21.643l10.81 10.82 10.797-10.804v15.283l15.263.009-15.269 15.275 21.641-.01 15.285-15.294h-21.61l15.268-15.275H62.917v-15.303l-15.261 15.276-.005-21.62-10.81 10.818zm282.738.079l10.64 10.818h21.763l10.816-10.821-10.816-10.82-21.764-.005-10.639 10.828zM508.68 724.13l-10.817 10.82 10.817 10.823h21.764l10.639-10.818-10.64-10.829-21.763.004zM10.745 751.965l15.28 15.295V745.62l-15.28-15.295v21.641zM0 741.233v30.603l.003.003 4.491-4.493h6.318v-15.303L.017 741.22l-.016.013zm136.987 4.402v15.22l15.444 15.367h14.963v6.306l-4.477 4.48 4.477 4.484v6.34h6.335l4.482 4.479-10.812 10.652v21.779l10.815 10.818 10.813-10.818.004-21.78-10.82-10.651 4.476-4.48h6.335v-6.339l4.482-4.484-4.482-4.48v-6.34h-6.335l-4.476-4.483-4.482 4.483h-6.176v-15.287l-15.257-15.266h-15.309zm430.355.134v15.223l15.445 15.369h15.121v-15.326l-15.255-15.266h-15.31zm36.901 30.592h-6.335v6.339l-4.477 4.48 4.477 4.484v6.34h6.335l4.482 4.48 4.476-4.48h6.335v-6.34l4.482-4.483-4.482-4.481v-6.34h-6.335l-4.476-4.485-4.482 4.486zm-399.847-.054l-10.815 10.82 10.815 10.823h21.764l10.64-10.819-10.64-10.828-21.764.004zm-134.997.009L58.583 787.14l4.486 4.488v6.33h6.326l4.485 4.484 10.788-10.792-.009 21.641 15.266-15.279.007 15.28h15.273l-10.795 10.802 10.813 10.82h21.626l-10.812-10.82 10.812-10.824h-21.602l15.265-15.275h-15.295v-15.302l-15.263 15.273V776.34l-15.261 15.27v-15.294H69.4zm230.204 21.615h-6.335v6.338l-4.478 4.484 4.478 4.48v6.34h-15.31L262.7 834.839v15.32h15.123l15.445-15.364v-15.222h6.335l4.48 4.485 4.478-4.485h6.333v-6.34l4.482-4.48-4.482-4.484v-6.338h-6.333l-4.478-4.482-4.48 4.482zm252.495.046h-6.335v6.34l-4.482 4.485 4.482 4.48v6.34h6.335l4.478 4.483 4.48-4.483h6.335v-6.34l4.478-4.48-4.478-4.485v-6.34h-6.335l-4.48-4.479-4.478 4.48zm-311.045 15.118v21.777l10.816 10.823-4.478 4.485h-6.335v6.34l-4.434 4.434h30.492l-4.428-4.435v-6.339h-6.335l-4.482-4.485 10.812-10.823.005-21.777-10.822-10.647-10.81 10.647zm189.33 11.036l-10.813-10.82-.003 21.64 10.816 10.823 10.815-10.82v-21.643l-10.815 10.82zM404.2 834.918h-15.297l15.21 15.217h-21.566l10.806 10.819h21.628l-10.725-10.732 15.224-.01V834.91l-15.28-15.297v15.305zm163.192-15.296v15.221l15.445 15.366h15.121v-15.321l-15.257-15.266h-15.309zM93.631 834.914l15.286 15.29h21.628l-15.286-15.29H93.63zM0 860.954h15.305l-4.474-4.475v-6.34H4.498l-4.482-4.483L0 860.954zm173.515-10.778h-6.334v6.339l-4.441 4.439h30.505l-4.437-4.44v-6.338h-6.335l-4.482-4.484-4.476 4.484zm-79.972-.04v6.323l-4.49 4.492.003.003h30.584l.011-.016-10.815-10.803H93.543zm110.477.04l-10.775 10.778h43.132l-10.594-10.781-21.763.003zm252.47.01L445.677 861h21.628l10.808-10.814H456.49z" fill="#ADADAD"/><path d="M415.621 0l4.246 4.301.012 6.487 6.428-.049 4.486 4.487 4.486-4.484h6.321v-6.57L445.77 0H415.62zM141.245.046l-10.817 10.817 21.643.003L162.894.046h-21.65zm657.127 10.689l-.012 15.29 10.826 10.86L820 26.071v-9.02l-6.345-6.343-15.283.026zM41.479 17.099v9.02l10.813 10.812 10.827-10.86-.012-15.287-15.283-.028L41.48 17.1zm110.613-6.211l-15.299 15.294h15.308l.003 6.316 4.495 4.49 10.808-10.806-.007-15.294h-15.308zm.119 30.594l-.003 6.316h-15.31l15.3 15.294h15.31l.006-15.294-10.81-10.81-4.493 4.494zm-135.151.03l-6.348 6.344.028 15.28 15.295.012 10.86-10.824L26.08 41.513H17.06zM130.6 63.17l10.823 10.823-4.49 4.485v6.283h-6.15l-4.49 4.484-10.823-10.82v21.644l10.823 10.817 10.826-10.823-.003-15.251h15.133l10.821-10.819-10.825-10.824-21.645.001zm-30.433 36.903H84.86l15.3 15.294h15.307l.009-15.294-15.308-15.305v15.305zm-21.766 15.415l10.823 10.82-4.486 4.488v6.147h-6.283l-4.49 4.488-10.822-10.82-.005 21.64 10.828 10.822 10.822-10.819v-15.126l15.259.003 10.826-10.823-10.823-10.82H78.402zM0 141.255v21.643l10.821-10.819v-21.64L0 141.255zm10.843 10.843v15.305l15.3.007 10.812-10.807-4.493-4.492-6.32-.004v-15.304l-15.299 15.295zm304.454-15.233l.117 15.266 15.18 15.333v-15.302l6.32-.006 4.493-4.492-10.812-10.807-15.298.008zm26.217 10.852l4.494 4.492h6.322v15.304l15.298-15.296v-15.301l-15.298-.009-10.816 10.81zm-293.748 4.497l-6.316.003-4.495 4.493 10.811 10.807 15.3-.008v-15.304l-15.3-15.296v15.305zm498.296-.13l.004 21.032 10.822-10.212 4.49 4.485h6.333V152.08l-10.823-10.82-10.826 10.823zm-73.855.086v15.308h6.332l4.49-4.485 10.822 10.213.005-21.031-10.828-10.822-10.821 10.817zm-104.584.052l.002 21.03 10.826-10.211 4.486 4.484h6.316v6.254l4.485 4.488-10.823 10.822h21.639l-15.293 15.288h15.309v6.332l4.489 4.488 10.808-10.807v-15.303l-15.287-.013 10.805-10.807-10.825-10.823h-15.288v-15.227l-10.821-10.818-10.828 10.823zm-89.217 15.213l-10.826 10.824 10.823 10.819h21.648l-10.823-10.819 4.484-4.488v-6.336h-15.306zm-15.378 21.751v15.304l10.784 10.781-10.766 10.766v15.304l15.294.012 15.313-15.304H278.34v-6.33l-4.463-4.461 4.452-4.449v-6.33h15.308l-15.308-15.304-15.3.011zm252.484 15.14h-6.341v6.34l-4.48 4.485 4.48 4.48v6.339h6.34l4.487 4.485 4.482-4.485h6.34v-6.34l4.486-4.48-4.485-4.484v-6.34h-6.341l-4.482-4.48-4.486 4.48zm-73.835 21.64v15.303l15.296.011 15.312-15.303h-15.312v-6.33l-4.49-4.487-10.806 10.805zm-37.17-6.272v6.33h-15.313l15.312 15.304 15.296-.013v-15.302l-10.805-10.806-4.49 4.487zm-126.15 21.647l-10.822 10.819 10.827 10.824h15.306v-6.335l-4.484-4.49 10.823-10.818h-21.65zm204.755 26.085l-4.486-4.485h-6.337v15.308l10.823 10.818 10.825-10.823v-21.03l-10.825 10.212zm-178.577.014l-4.488-4.485h-6.335v15.308l10.823 10.819 10.826-10.825-.002-21.03-10.824 10.213zm226.438 10.809l-6.323.004-4.493 4.492 10.816 10.807 15.294-.008V278.24l-15.294-15.295v15.304zm-37.036-.005v15.304l15.3.009 10.814-10.812-4.493-4.492h-6.32V262.95l-15.301 15.295zm126.181-15.27l-.011 15.29 15.307 15.309v-15.308h6.333l4.486-4.488-10.806-10.803h-15.309zm-267.876 15.325h-6.32l-4.494 4.493 10.814 10.811 15.3-.009v-15.302l-15.3-15.296v15.303zm-163.049-15.296l-.011 15.296 15.308 15.304v-15.304h6.332l4.49-4.488-10.81-10.808h-15.309zm52.168 15.325v21.642l10.821-10.817 4.49 4.483h6.336v-15.303l-10.826-10.825-10.821 10.82zm-89.238 15.407L141.3 304.553l10.827 10.825 21.037-.005-10.214-10.82 4.485-4.488v-6.33h-15.312zm126.193 21.439l-15.3 15.29h15.309l.004 6.32 4.493 4.49 10.81-10.81-.007-15.29h-15.31zm-141.47 15.38l10.812 10.807 4.494-4.492.004-6.315h15.308l-15.337-15.176-15.27-.119-.01 15.295zm73.878.062h-6.34v6.338l-4.482 4.48 4.482 4.486v6.34h6.34l4.486 4.478 4.48-4.479h6.341v-6.34l4.485-4.484-4.485-4.481v-6.338h-6.34l-4.481-4.483-4.486 4.483zm357.118 21.529l.009 15.296h15.308l15.299-15.296H583.15v-6.318l-4.493-4.492-10.815 10.81zm-289.513-6.27v6.319H263.02l15.3 15.295h-21.038l10.216 10.823-4.487 4.485v6.333h15.313l10.822-10.818-10.827-10.823h15.308l.009-15.295-10.815-10.813-4.493 4.494zm430.946.039v6.322h-15.308l15.3 15.292h15.303l.009-15.292-10.812-10.816-4.492 4.494zm-572.375 6.37l.009 15.29h15.303l15.3-15.29h-15.307v-6.324l-4.495-4.492-10.81 10.816zm472.417 41.281l-4.49-4.48h-6.336v15.299l10.826 10.824 10.821-10.82v-21.643l-10.821 10.82zm-367.978 10.87l10.823 10.82 10.826-10.824v-15.3h-6.337l-4.489 4.48-10.823-10.818v21.641zm-63.07-10.757l-4.49-4.481h-6.336v15.3l10.826 10.822 10.81-10.801.012 15.283h15.308L215.209 409l-4.49-4.49h-6.332v-15.308l-15.29 15.291v-21.634l-10.828 10.82zm47.771 10.766h-6.332l-4.487 4.488 10.806 10.803h15.31l.01-15.29-15.307-15.309v15.308zM0 445.357l4.174-4.17h6.57v-6.318l4.491-4.483-4.492-4.484.051-6.425-6.489-.013L0 415.218v30.139zm189.09-4.157l-.01 15.282-10.81-10.801-10.827 10.823v15.283h-15.23l-10.818 10.82 10.82 10.822-.003-.002H136.91l-.009 15.29 10.81 10.815 4.495-4.492v-6.322h15.308l-15.296-15.288 21.037-.003-10.214-10.82 4.485-4.488v-6.316h6.254l4.49-4.48 10.828 10.82v-21.634l15.29 15.29v-15.307h6.332l4.49-4.488L204.4 441.2H189.09zm52.25 15.366v21.643l10.822-10.82 4.49 4.48h6.336V456.57l-10.826-10.823-10.823 10.819zm21.672 15.304v6.334l4.487 4.486-10.216 10.822h21.037l10.827-10.822-10.822-10.82h-15.313zm320.142.049l-10.823 10.82 10.828 10.823h21.035l-10.214-10.823 4.487-4.485v-6.335h-15.313zM278.32 493.512l-15.299 15.295h15.308v6.32l4.493 4.492 10.815-10.812-.01-15.295H278.32zm-141.473 36.934l.01 15.295 15.27-.119-10.827 10.823 10.823 10.82h15.312v-6.33l-4.485-4.49 10.214-10.818-21.037-.005 15.337-15.176h-15.308l-.004-6.313-4.494-4.494-10.811 10.807zm431 .14l.007 15.291h15.31l15.298-15.29h-15.308l-.004-6.32-4.493-4.49-10.81 10.81zM257.25 545.68l10.217 10.819-4.488 4.49v6.33h15.312l10.823-10.82-10.826-10.822-21.038.003zm-78.99 26.124l-4.489-4.485h-6.336v15.304l10.826 10.824 10.823-10.82v-21.642l-10.823 10.819zm63.1 10.87l10.822 10.816 10.826-10.823v-15.302h-6.335l-4.49 4.484-10.822-10.82v21.644zm-15.295.015h-6.333l-4.486 4.488 10.806 10.804h15.309l.011-15.292-15.307-15.308v15.308zm394.042.05l.011 15.291h15.31l10.805-10.804-4.486-4.488h-6.333V567.43l-15.307 15.308zm-252.565-.03v21.031l10.826-10.21 4.485 4.483h6.337v-15.308l-10.822-10.82-10.826 10.824zm178.573.081l.005 21.033 10.821-10.213 4.49 4.485h6.333v-15.308l-10.823-10.82-10.826 10.823zm-267.753 15.227l-10.827 10.823 10.821 10.819h21.65l-10.822-10.819 4.484-4.49v-6.333h-15.306zm-15.316 21.642v15.304l10.766 10.767-10.784 10.781v15.304l15.3.012 15.309-15.304h-15.308v-6.33l-4.45-4.45 4.461-4.461v-6.331h15.313l-15.313-15.304-15.294.012zm304.779 15.34h15.312v6.332l4.49 4.485 10.808-10.804v-15.304l-15.298-.012L567.825 635zm-126.148-15.266v15.305l10.805 10.8 4.49-4.483v-6.33h15.313l-15.312-15.304-15.296.012zm-104.678 15.25h-6.34v6.339l-4.486 4.48 4.485 4.484v6.34H337l4.482 4.48 4.486-4.48h6.341v-6.34l4.48-4.483-4.48-4.481v-6.34h-6.34l-4.487-4.484-4.482 4.485zm104.613 21.676v15.304l15.294.011 15.312-15.302h-15.312v-6.332l-4.489-4.488-10.805 10.807zm-58.697 15.254l10.823 10.819-4.485 4.49v6.333h15.307l10.825-10.823-10.821-10.819h-21.649zm100.113 26.094l-4.489-4.484h-6.332v15.308l10.821 10.816 10.828-10.82-.005-21.031-10.823 10.21zm63.034 10.91l10.826 10.824 10.823-10.819v-15.308h-6.333l-4.49 4.484-10.822-10.211-.004 21.03zM36.955 704.29l4.495 4.492 6.316.003v15.305l15.3-15.295V693.49l-15.3-.007-10.811 10.807zm315.375 4.5h-6.322l-4.494 4.493 10.816 10.81 15.298-.007v-15.304l-15.298-15.295v15.304zm-36.916.077l-.117 15.268 15.298.007 10.812-10.804-4.493-4.494-6.32-.004v-15.304l-15.18 15.331zm-304.57-15.27v15.302l15.298 15.298v-15.304l6.32-.004 4.493-4.494-10.813-10.805-15.299.007zm52.295 15.152l.005 21.638 10.823-10.818 4.489 4.488h6.283v6.145l4.486 4.49-10.823 10.818h21.649l10.823-10.818-10.826-10.823-15.259.003v-15.128l-10.822-10.818-10.828 10.823zM0 719.744l10.821 10.815v-21.637L0 698.102v21.642zm100.16 25.89l-15.3 15.293h15.308v15.308l15.308-15.308-.009-15.292H100.16zm15.311 15.3v21.643l10.823-10.819 4.49 4.48h6.15v6.285l4.49 4.485-10.823 10.823h21.645l10.825-10.823-10.821-10.82h-15.133l.003-15.248-10.826-10.825-10.823 10.819zm608.886.048l.003 15.306h6.332l4.491-4.485 10.822 10.82V760.98l-10.822-10.82-10.826 10.822zM10.74 797.865l-.028 15.279 6.348 6.343h9.021l10.813-10.812-10.859-10.823-15.295.013zm141.364 30.639l-.003 6.314h-15.308l15.3 15.295H167.4l.007-15.295-10.808-10.807-4.495 4.493zM41.479 834.88v9.02l6.345 6.344 15.283-.027.012-15.288-10.827-10.86-10.813 10.81zm384.828 15.381l-6.428-.05-.012 6.487-4.246 4.301h30.148l-4.169-4.17v-6.572h-6.32l-4.487-4.484-4.486 4.488zm-295.88-.127l10.818 10.819h21.649l-10.823-10.819h-21.643z" fill="#D2D2D2"/><path d="M15.288 0l11.106 10.9 21.356-.079L58.588 0h-43.3zm-4.437 26.141l15.287 15.268h15.34V26.186l-15.13-15.238-15.497-.131V26.14zM0 58.521l10.834-10.826.078-21.333L0 15.272v43.249zm583.786-17.18l-10.852 10.82 10.85 10.805h15.324l-.042-15.306-6.33-6.32h-8.95zm-314.191.047l-6.33 6.319-.042 15.306h15.323l10.848-10.803-10.853-10.822h-8.946zm8.997 21.637L267.747 73.83l10.848 10.821h8.948l6.33-6.32.042-15.306h-15.323zm-52.303 21.762l-6.327 6.32v8.94l10.832 10.838 10.817-10.833v-15.31l-15.322.045zm15.322 67.473l10.817 10.839 10.832-10.843v-8.936l-6.327-6.323-15.322-.04v15.303zm-52.063 36.95l-.207 15.354 10.812 10.801-10.68 10.67v15.306h15.321l10.77-10.757 10.748 10.735h15.323v-15.303l-10.833-10.822-4.494 4.482h-6.339v6.334l-4.43 4.422-4.397-4.4V219.7H204.8l-4.472-4.471 4.34-4.326h6.337v-6.336l4.494-4.486-10.628-10.871h-15.323zm431.146 36.756v15.307h15.324l10.748-10.737 10.769 10.757h15.323v-15.305l-10.837-10.826-4.49 4.49h-6.343v6.332l-4.397 4.4-4.431-4.42v-6.338h-6.339l-4.494-4.478-10.833 10.818zm-529.48-6.259l-6.325 6.32-.045 15.304h15.326l10.847-10.804-10.849-10.82h-8.953zm61.175.012l-10.85 10.821 10.832 10.79h-15.256l.042 15.308 6.33 6.318h8.947l10.853-10.82-10.836-10.792h15.256l-.04-15.304-6.332-6.321h-8.946zm557.505 21.566l-10.85 10.803 10.851 10.822h8.949l6.33-6.32.041-15.305h-15.321zm-609.714.227l-10.85 10.805 10.853 10.82h8.948l6.33-6.318.042-15.307H100.18zm-52.416 21.45l-6.325 6.322v8.938l10.832 10.84 10.818-10.837V262.92l-15.325.042zM63.1 278.27v15.305l15.323-.04 6.326-6.324v-8.937l-10.831-10.837L63.1 278.27zm0 304.459l10.818 10.834 10.83-10.839v-8.936l-6.325-6.323-15.323-.042v15.306zm-21.661.049v8.938l6.325 6.322 15.325.042v-15.305L52.27 571.936l-10.832 10.842zm58.744 15.085L89.33 608.682l10.85 10.805h15.323l-.042-15.307-6.33-6.317h-8.948zm653.016.05l-6.33 6.316-.041 15.307h15.322L773 608.732l-10.854-10.82H753.2zm-609.712.13l-6.33 6.318-.042 15.307h15.258l-10.834 10.79 10.85 10.82h8.946l6.332-6.318.04-15.304H152.45l10.838-10.792-10.853-10.821h-8.947zm45.986 21.616v15.305l10.68 10.671-10.812 10.8.207 15.357h15.323l10.605-10.85 10.82 10.808h15.322v-15.31l-10.732-10.72 10.75-10.737V619.68h-15.324l-10.75 10.736-10.768-10.756h-15.321zm15.327 21.64h6.342v-6.332l4.398-4.4 4.43 4.42v6.336h6.338l4.394 4.381-4.411 4.402h-6.338v6.33l-4.47 4.465-4.478-4.468v-6.337h-6.337l-4.341-4.326 4.473-4.472zM84.844 619.667l.045 15.303 6.326 6.32h8.953l10.849-10.821-10.847-10.802H84.844zm535.85.06v15.304l10.833 10.821 4.494-4.48h6.339v-6.336l4.495-4.485-10.837-10.824h-15.324zm-379.083 89.01v15.304l15.322-.04 6.327-6.323v-8.938L252.428 697.9l-10.817 10.838zm357.46.054v8.935l6.325 6.324 15.324.04v-15.304l-10.818-10.838-10.832 10.843zm-357.28 52.147l10.817 10.839 10.833-10.843V752l-6.327-6.326-15.322-.039v15.304zm-21.829.013v8.942l6.327 6.319 15.322.044v-15.31l-10.817-10.832-10.832 10.837zm400.758.042v15.31l15.321-.047 6.327-6.318v-8.942l-10.832-10.837-10.816 10.834zm-342.125 15.353l-10.848 10.821 10.845 10.804h15.323l-.042-15.305-6.33-6.32h-8.948zm296.193.05l-6.332 6.319-.04 15.305h15.323l10.845-10.804-10.85-10.82h-8.946zm-311.565 21.587l.042 15.306 6.33 6.32h8.946l10.853-10.821-10.848-10.805h-15.323zM0 845.728l10.912-11.092-.078-21.333L0 802.478v43.25zm26.138-26.14l-15.287 15.27v15.327l15.497-.132 15.13-15.24v-15.225h-15.34zM15.288 861h43.3L47.75 850.18l-21.356-.078L15.288 861z" fill="#696969"/><path d="M267.459 0l10.602 10.782 21.785-.005L310.626 0H267.46zm32.387 10.777l-6.327 6.32v8.94l10.823 10.835 10.805-10.83v-15.31l-15.301.045zm15.183 52.25l.04 15.304 6.325 6.318h8.938l10.843-10.818-10.837-10.805h-15.31zM515.679 84.6v15.132l15.373 15.457h15.226V99.868L531.007 84.6h-15.328zm-74.088 30.536l.045 15.302 6.319 6.322h8.942l10.839-10.82-10.833-10.804H441.59zm-37.032.05l-10.836 10.803 10.841 10.82h8.94l6.323-6.325.042-15.298h-15.31zM0 310.568l10.78-10.783.005-21.78L0 267.407v43.161zm17.1-17.105l-6.32 6.322-.044 15.302h15.312l10.834-10.805-10.839-10.819H17.1zm45.941 36.808l10.805 10.837 10.822-10.842v-8.935l-6.321-6.324-15.306-.04v15.304zm378.651-15.187l.006 15.05-10.831-10.73-10.699 10.73.128 10.795 10.637 5.204 10.64-5.204.125-10.79v.154l8.637 7.937 9.059-4.374 5.162-11.219-7.556-7.553h-15.308zm-341.753.04L84.668 330.39v15.326h15.136l15.458-15.37v-15.223H99.94zm304.52.006l-7.555 7.555 5.066 11.007-14.545-7.495-5.215 15.641 4.69 10.496 11.762.215 7.53-8.852-4.042-9.755 8.974 4.334 8.638-7.935.004-15.21H404.46zm-47.771 25.94l10.847 11.264h10.311l4.364-10.496-3.919-11.46-10.778-.112-10.825 10.804zm-256.72 4.917l-10.843 10.819 10.837 10.803h15.309l-.04-15.303-6.326-6.32h-8.937zm394.083 6.276l-7.375 7.26 3.933 11.306 11.115 3.742 7.266-7.263.405-15.49-15.344.445zm15.008 15.152V377.727l10.497 4.36 11.462-3.918.112-10.775-10.807-10.824-11.264 10.845zm-178.729.026l.115 10.775 11.457 3.92-15.643 5.214 7.5 14.544-11.01-5.066-7.555 7.555v15.303l15.21-.003 7.94-8.638-4.336-8.972 9.756 4.04 9.253-7.925-.614-11.363-10.5-4.69 10.5-4.362v-10.311l-11.267-10.846-10.806 10.825zM115.21 404.48v15.309l15.128-.045-10.65 10.642 10.826 10.824h21.783l10.65-10.82-10.65-10.827-21.606.004 6.147-6.143v-8.94l-10.823-10.835-10.805 10.83zm204.306 25.964l10.73 10.828 10.797-.123 5.54-10.602-5.54-10.672-10.797-.127-10.73 10.696zm200.903-10.522l-5.12 10.625 5.12 10.651 10.798.123 10.73-10.828-10.73-10.697-10.798.126zm-405.21 36.55l10.806 10.834 10.823-10.835v-8.942l-6.324-6.319-15.304-.046v15.309zm218.6 2.493l-7.549 14.64 15.643 5.215 10.5-4.69.604-11.316-9.242-7.973-9.956 4.124zm175.067 3.849l.184 11.366 10.497 4.689 15.645-5.214-7.548-14.643-9.956-4.122-8.822 7.924zm-178.43 19.924l-.115 10.774 10.806 10.825 11.267-10.843v-10.312l-10.5-4.362-11.458 3.918zm178.614.493v10.312l11.264 10.843 10.807-10.824-.112-10.775-11.462-3.918-10.497 4.362zM352.473 493.6l-.406 15.49 15.343-.444 7.376-7.261-3.501-11.21-11.548-3.837-7.264 7.262zm138.125-3.425l-3.922 11.259 7.375 7.26 15.344.445-.405-15.49-7.266-7.26-11.126 3.786zm-390.636 3.17L89.125 504.15l10.843 10.82h8.937l6.325-6.32.04-15.304H99.963zm355.306 23.963l4.042 9.753-8.975-4.333-8.637 7.935v.156l-.124-10.791-10.652-5.157-10.626 5.157-.128 10.796 10.699 10.73 10.831-10.73-.006 15.05H457l7.556-7.555-5.066-11.007 14.546 7.496 5.215-15.641-4.69-10.495-11.329-.219-7.964 8.855zm-370.6-2.068v15.325l15.27 15.268h15.324v-15.223l-15.458-15.37H84.668zM63.04 530.684v15.303l15.306-.04 6.32-6.323v-8.937l-10.82-10.84-10.806 10.837zm339.026-3.63l-5.163 11.215 7.555 7.554h15.307l-.004-15.21-8.638-7.935-9.057 4.375zM10.736 545.867l.045 15.302L0 550.385v43.163l10.785-10.6-.004-21.778 6.319 6.322h8.943l10.839-10.82-10.834-10.804H10.736zm393.828 178.277l-10.841 10.82 10.836 10.802h15.31l-.042-15.299-6.323-6.323h-8.94zm43.391.05l-6.32 6.322-.044 15.3h15.312l10.833-10.803-10.839-10.819h-8.942zm-95.58 21.558l-6.322 6.322v8.936l10.821 10.84 10.807-10.836v-15.303l-15.306.04zM493.78 761.06l10.806 10.836 10.821-10.84v-8.937l-6.32-6.323-15.307-.042v15.306zm-172.386 15.243l-6.325 6.32-.04 15.304h15.309l10.837-10.805-10.843-10.82h-8.938zm-27.875 58.613v8.94l6.327 6.32-21.785-.005-10.602 10.783h43.167l-10.78-10.779 15.301.045v-15.309l-10.805-10.832-10.823 10.837zm268.098 15.309L550.832 861H594l-10.6-10.779-21.783.005z" fill="#C6C6C6"/><path d="M78.496 10.813l.007 15.294h15.322l15.313-15.294H93.817v-6.32L89.319 0 78.496 10.813zM372.436.036L361.61 10.833h21.667L394.103.036h-21.667zm84.919 10.77l15.296 15.22 21.679.052-15.31-15.272h-21.665zm-74.081.047l-15.31 15.272 21.68-.05 15.297-15.222h-21.667zm58.744 36.825l15.308 15.296V41.331l-15.308-15.295v21.642zm-37.048-6.3V63.02l15.308-15.296V26.082L404.97 41.377zM63.224 47.726l.004 15.302h6.338l4.493-4.482 10.832 10.82V47.722L74.06 36.904 63.224 47.727zM36.948 73.974l10.789 10.778-12.567.025-9.03 8.92V78.414l-15.312-.009L0 89.217l4.499 4.492h6.329v15.304l15.28-15.263v21.623l10.835-10.857L47.78 115.34l-.02-15.303 15.32.02-15.283-15.262h21.65l-10.83-10.82 4.488-4.488v-6.332l-15.32-.005-10.836 10.825zm300.4 78.226l-6.324.004v15.304l10.832 10.82 10.834-10.82-.02-15.308h-6.328l-4.496-4.493-4.497 4.493zm-21.626 20.955l15.258 15.908-.063-21.608-15.194-15.333-.001 21.033zm178.592-.06l-10.815-10.192-4.49 4.485h-6.342v6.335l-4.486 4.488 10.832 10.822h15.321v-15.815l15.294 15.886-.018-21.638-15.293-15.3-.003 20.93zm52.313.012l-.004 15.916h15.325l10.833-10.82-4.49-4.489v-6.335h-6.338l-4.495-4.483-10.83 10.21zm-246.284-5.68h-6.34v6.335l-4.488 4.488 10.832 10.82h15.323l-.002-15.915-10.834-10.213-4.491 4.485zm67.618 5.735l-.001 15.918h15.322l-15.322 15.304 21.676-.013 15.314-15.29h-21.668l10.833-10.822-4.49-4.49v-6.335h-6.338l-4.492-4.483-10.834 10.21zm194.054 15.969l-15.325 15.304 21.679-.012 15.308-15.292h-21.662zm-283.399.048l15.311 15.292 21.679.012-15.325-15.304h-21.665zm178.73 15.155l-.003 6.314-4.499 4.494 4.499 4.493v6.322l15.324.017 10.832-10.82-10.832-10.82h-15.321zm-67.72.049l-10.83 10.819 10.83 10.818 15.325-.014v-6.325l4.498-4.492-4.498-4.491-.004-6.315h-15.321zm-111.011.1l-.005 6.314-4.498 4.493 4.498 4.49v6.323l15.278.016-15.208 15.185h21.667L315.67 226l-21.629.013 10.727-10.712-10.832-10.818h-15.321zm194.11 21.491l-15.314 15.29h21.667l15.321-15.303-21.674.013zm-89.508 15.34h21.666L389.57 226.02l-21.676-.011 15.324 15.305zm163.406-.056l.004 15.914 10.831 10.213 4.495-4.486h6.337v-6.333l4.49-4.49-10.832-10.818h-15.325zm-67.545.031l-10.83 10.82 4.485 4.489v6.336h6.342l4.49 4.484 10.834-10.211v-15.918h-15.32zm-178.73.015l-10.833 10.82 4.487 4.488v6.337h6.34l4.492 4.483 10.834-10.211.002-15.917h-15.323zm15.32 15.917l.002 21.03 15.158-15.165v15.201l6.432.006 4.5 4.492 4.496-4.492h6.327v-15.305l-10.815-10.823-10.805 10.687.017-21.538-15.312 15.907zm52.228-15.884v15.916l10.835 10.213 4.49-4.486h6.341v-6.335l4.486-4.488-10.83-10.82h-15.322zm-15.293 21.648l15.293 15.3v-21.032l-15.313-15.909.02 21.64zm157.11-.044v15.304h6.326l4.498 4.493 4.497-4.493 6.433-.003v-15.305l-10.94-10.819-10.814 10.823zm-298.676 15.355l-6.322.004v15.304l10.832 10.82 10.72-10.713-.012 21.606 15.322-15.308v-21.642l-15.203 15.188-.015-15.26h-6.33l-4.495-4.49-4.497 4.49zM657.59 293.55l-.012 21.653 15.321-15.308v-21.64l-15.31 15.295zm-468.197 6.392l15.32 15.309-.01-21.657-15.31-15.29v21.638zm52.183.066v15.308l15.932-.003 10.226-10.82-4.492-4.488v-6.331h-6.342l-4.492-4.484-10.832 10.818zm-67.618-6.334h-6.342v6.33l-4.49 4.489 10.223 10.82 15.934.003v-15.308l-10.832-10.818-4.493 4.484zM583.73 315.27l15.318 15.277 21.662.014-15.924-15.295-21.056.004zm-342.146 15.34l21.564-.017-10.7 10.791 10.837 10.803h15.321v-6.319l4.497-4.492-4.497-4.493-.004-6.426h-15.218l15.181-15.14-21.056-.003-15.925 15.296zm431.438-.049l21.628-.06L710 315.324l-21.055-.004-15.923 15.241zm-520.726-15.19l15.35 15.176 21.63.063-15.926-15.243-21.054.003zm.082 15.283l-.004 6.315-4.499 4.492 4.499 4.494v6.322l15.324.017-15.313 15.27 20.954.004-10.204 10.804 4.49 4.484v6.335h6.34l4.495 4.48 10.837-10.82v-15.304h-15.835l15.903-15.274-21.662.015 10.828-10.814-10.832-10.82h-15.32zm446.635 21.506l-15.315 15.276h21.054l15.926-15.297-21.665.02zm-341.47 15.322h21.054l-15.316-15.275-21.663-.02 15.924 15.295zM.037 372.02v21.644l10.81-10.816v-21.644L.038 372.02zm620.672 10.719v21.643l15.31-15.295.01-21.65-15.32 15.302zm-394.433 6.395l15.307 15.295v-21.643l-15.32-15.304.013 21.652zm-36.98-6.283v21.645l15.308-15.297.011-21.652-15.32 15.304zm-178.429-.007v21.643l15.24-15.28v15.308h15.32l15.322-15.311H41.428V373.9l-15.32 15.307.05-21.654-15.29 15.291zm431.166-6.198l5.803 14.004 13.986-5.79-.015-.033.04-.016-5.756-14.077-14.058 5.912zm-41.14 8.165l.04.016-.015.033 13.983 5.79 5.8-14.004-14.054-5.912-5.754 14.077zm235.127 4.333l.014 15.309h6.33l4.5 4.492 4.495-4.492 6.322-.006v-15.303l-10.83-10.82-10.831 10.82zm-431.409.047v15.305l6.322.003 4.499 4.494 4.497-4.494h6.33l.017-15.308-10.833-10.819-10.832 10.819zm257.236-4.38v15.125h15.171l-5.778 13.97 14.006 5.793 5.8-13.988-14.028-5.775V384.81h-15.171zm-76.127 15.125h15.174V384.81h-15.174v15.125zm-344.293 4.579l-15.312 15.292h21.42L36.953 430.36l10.832 10.821H69.45l-10.83-10.818 10.83-10.802H48.03l15.067-15.046h-21.67zm325.336 25.984l10.718 10.84 10.72-10.84-10.72-10.703-10.718 10.703zM26.116 441.18l15.312 15.294h-15.32v15.308l15.32 15.308v-15.303H56.75l-15.322-15.313h21.669l-15.313-15.294H26.116zm184.818 15.309l-6.322.004v15.304l10.832 10.82 10.833-10.82-.018-15.308h-6.329l-4.497-4.491-4.5 4.49zm431.432.05h-6.331l-.014 15.308 10.83 10.82 10.831-10.82v-15.305l-6.322-.003-4.496-4.492-4.498 4.492zm-453.07 21.597l15.32 15.305-.011-21.65-15.308-15.298v21.643zm-178.428.01l15.29 15.29-.05-21.654-15.24-15.28v21.644zm646.823-6.307l-.012 21.652L673 478.188v-21.645L657.69 471.84zm-431.414.017l-.013 21.652 15.32-15.305V456.56l-15.307 15.297zm394.433 6.396l15.32 15.305-.01-21.652-15.31-15.296v21.643zm-235-2.027h15.172v-15.124H385.71v15.124zm-211.744-4.428h-6.34v6.336l-4.49 4.484 10.204 10.804-20.955.005 15.318 15.273 21.662.017-15.904-15.275h15.836v-15.305l-10.837-10.819-4.494 4.48zM.038 488.968l10.81 10.817V478.14L.038 467.327v21.642zm241.571-10.764v15.305h15.933l10.225-10.825-4.49-4.483v-6.337h-6.343l-4.493-4.48-10.832 10.82zm159.297-2.027l.014.034-.039.015 5.756 14.078 14.054-5.913-5.801-14.003-13.984 5.79zm41.115 8.214l14.058 5.913 5.756-14.078-14.01-5.825-5.804 13.99zm-21.33 0l10.667 10.651 10.663-10.65-10.663-10.653-10.667 10.652zm252.238 24.376l21.663-.016 15.318-15.275-21.055-.005-15.926 15.296zm-415.387-15.258l-15.924 15.295 21.663-.02 15.316-15.275h-21.055zm5.743 15.295l-10.836 10.804 10.697 10.789-21.562-.015 15.925 15.295-15.932-.004v15.308l-15.322-15.308.013 21.604-10.72-10.711-10.833 10.818v15.306l6.322.003 4.497 4.493 4.495-4.493h6.33l.015-15.258 15.203 15.19V560.98l10.832 10.82 4.492-4.485h6.342v-6.33l4.492-4.49-10.226-10.819 21.056-.004-15.18-15.14h15.217l.004-6.425 4.497-4.494-4.497-4.49v-6.32h-15.32zm-95.64 21.638l-15.35 15.176 21.055.006 15.925-15.242-21.63.06zm521.3 15.231L710 545.67l-15.35-15.178-21.628-.06 15.923 15.242zm-89.897-15.227l-15.318 15.276 21.056.005 15.924-15.296-21.662.015zM173.35 545.677l-10.222 10.82 4.489 4.489v6.33h6.342l4.493 4.484 10.832-10.819v-15.308l-15.934.004zm447.368 15.352v21.645l15.31-15.295.011-21.657-15.32 15.307zm-431.324.016v21.642l15.31-15.292.01-21.658-15.32 15.308zm147.866 21.652l-6.432.006v15.2L315.67 582.74l-.002 21.031 15.312 15.909-.017-21.54 10.805 10.686 10.815-10.824v-15.304h-6.327l-4.497-4.492-4.499 4.492zm178.78.05h-6.327v15.303l10.815 10.824 10.94-10.82v-15.302l-6.434-.006-4.497-4.492-4.498 4.492zm-163.437 15.258l-.02 21.64 15.313-15.907v-21.032l-15.293 15.3zm141.796 5.783l-10.833-10.213-4.49 4.485h-6.343v6.334l-4.485 4.49 10.83 10.818H494.4v-15.914l15.314 15.907-.02-21.64-15.294-15.3v21.033zm52.228.031l-.004 15.916h15.325l10.833-10.819-4.49-4.49v-6.334h-6.338l-4.495-4.484-10.83 10.211zm-163.41 15.86l-15.324 15.3 21.676-.01 15.314-15.29h-21.666zm-104.537.006l15.206 15.185-15.276.017v6.32l-4.498 4.495 4.498 4.493.005 6.315h15.32l10.833-10.82-10.725-10.713 21.627.013-15.323-15.305H278.68zm283.268.05l-15.325 15.304 21.63-.013.107-.107h.05l15.206-15.184h-21.668zm6.354 15.291h-.05l-10.724 10.707 10.832 10.822h15.32l.005-6.316 4.5-4.493-4.5-4.49v-6.32l-15.276-.017-.107.107zm-189.507 10.76l10.83 10.821h15.322l.004-6.313 4.498-4.494-4.498-4.494v-6.32l-15.325-.018-10.83 10.819zm-84.868 10.736l-15.31 15.292h21.664l15.325-15.304-21.679.012zm268.088 15.335h21.662l-15.308-15.292-21.68-.01 15.326 15.302zm-89.355-15.192l-15.314 15.29h21.667l15.321-15.302-21.674.012zm-119.975 36.811l15.292 15.3.002-20.932 10.816 10.194 4.492-4.484h6.339v-6.335l4.489-4.49-10.833-10.818H367.96l.001 15.814-15.294-15.888.018 21.64zm141.629-5.683l.003 21.033 15.293-15.3.018-21.64-15.314 15.907zM300.347 671.92l-10.832 10.82 4.487 4.488v6.335h6.34l4.492 4.485 10.834-10.213.002-15.915h-15.323zm15.375 15.915l.001 21.03 15.194-15.331.063-21.606-15.258 15.907zm15.302 5.645v15.304l6.325.005 4.497 4.492 4.496-4.492h6.329l.019-15.309-10.834-10.818-10.832 10.818zM26.108 767.24l-15.28-15.263v15.302h-6.33L0 771.773l10.828 10.81 15.312-.006v-15.285l9.03 8.92 12.568.026-10.79 10.778 10.836 10.823 15.32-.003v-6.33l-4.489-4.49 10.83-10.819h-21.65l15.284-15.263-15.32.019.02-15.303-10.836 10.823-10.835-10.856v21.623zm47.951 35.203l-4.493-4.48h-6.338l-.004 15.3 10.835 10.823 10.79-10.778.026 12.556 8.931 9.02H78.503l-.007 15.293 10.823 10.816 4.498-4.494v-6.322h15.32l-15.283-15.263h21.65l-10.868-10.82 10.836-10.824-15.322.02.022-15.308-15.28 15.268v-21.626l-10.833 10.819zm357.126.045l-10.816-10.82v21.644l10.812 10.82 10.837-10.82v-21.644l-10.833 10.82zm-47.911 47.648h21.667l-15.296-15.218-21.68-.054 15.309 15.272zm89.377-15.173l-15.296 15.223h21.665l15.31-15.272-21.68.049zm6.367 15.243L468.19 861h21.667l10.828-10.794h-21.667z" fill="#F5F5F5"/></g></g></svg>